<svg width="1150" height="45" viewBox="0 0 1150 45" fill="none" xmlns="http://www.w3.org/2000/svg">
<path d="M431.353 35C431.283 34.65 431.237 34.3583 431.213 34.125C431.213 33.8683 431.202 33.5767 431.178 33.25C430.385 34.0433 429.533 34.6267 428.623 35C427.737 35.3733 426.815 35.56 425.858 35.56C424.272 35.56 423.047 35.1283 422.183 34.265C421.343 33.4017 420.923 32.34 420.923 31.08C420.923 29.96 421.227 29.015 421.833 28.245C422.44 27.4517 423.233 26.81 424.213 26.32C425.193 25.8067 426.278 25.4217 427.468 25.165C428.658 24.885 429.837 24.7333 431.003 24.71V22.785C431.003 22.1083 430.922 21.49 430.758 20.93C430.618 20.3467 430.35 19.8917 429.953 19.565C429.557 19.215 428.973 19.04 428.203 19.04C427.69 19.0633 427.165 19.18 426.628 19.39C426.115 19.5767 425.707 19.88 425.403 20.3C425.59 20.51 425.707 20.7433 425.753 21C425.8 21.2333 425.823 21.4433 425.823 21.63C425.823 22.05 425.66 22.4933 425.333 22.96C425.007 23.4033 424.482 23.6133 423.758 23.59C423.128 23.5667 422.638 23.345 422.288 22.925C421.962 22.505 421.798 22.0033 421.798 21.42C421.798 20.5333 422.113 19.7633 422.743 19.11C423.397 18.4333 424.272 17.9083 425.368 17.535C426.465 17.1383 427.69 16.94 429.043 16.94C431.05 16.94 432.59 17.465 433.663 18.515C434.737 19.565 435.262 21.245 435.238 23.555C435.238 24.3717 435.238 25.1183 435.238 25.795C435.238 26.4483 435.227 27.1133 435.203 27.79C435.203 28.4433 435.203 29.1783 435.203 29.995C435.203 30.345 435.192 30.7883 435.168 31.325C435.145 31.8383 435.11 32.3517 435.063 32.865C435.483 32.8183 435.903 32.795 436.323 32.795C436.767 32.7717 437.128 32.7483 437.408 32.725V35H431.353ZM430.968 26.775C430.268 26.8217 429.58 26.9383 428.903 27.125C428.227 27.2883 427.62 27.5217 427.083 27.825C426.547 28.1283 426.115 28.5133 425.788 28.98C425.485 29.4233 425.345 29.9367 425.368 30.52C425.392 31.2433 425.625 31.78 426.068 32.13C426.512 32.4567 427.025 32.62 427.608 32.62C428.285 32.62 428.892 32.48 429.428 32.2C429.988 31.92 430.502 31.5467 430.968 31.08C430.968 30.8467 430.968 30.6017 430.968 30.345C430.968 30.0883 430.968 29.8317 430.968 29.575C430.968 29.2483 430.968 28.84 430.968 28.35C430.968 27.86 430.968 27.335 430.968 26.775ZM446.214 35.56C445.561 35.56 444.919 35.4783 444.289 35.315C443.683 35.1517 443.123 34.8483 442.609 34.405C442.119 33.9617 441.723 33.3083 441.419 32.445C441.116 31.5583 440.964 30.3917 440.964 28.945L441.034 19.915L438.549 19.95V17.5C439.249 17.4767 439.926 17.2433 440.579 16.8C441.233 16.3333 441.804 15.7267 442.294 14.98C442.784 14.2333 443.111 13.44 443.274 12.6H445.409L445.374 17.5H450.309V19.74L445.374 19.845L445.339 28.84C445.339 29.54 445.398 30.1933 445.514 30.8C445.654 31.3833 445.888 31.85 446.214 32.2C446.564 32.55 447.031 32.725 447.614 32.725C448.058 32.725 448.559 32.585 449.119 32.305C449.703 32.025 450.286 31.465 450.869 30.625L452.304 31.92C451.721 32.8067 451.114 33.495 450.484 33.985C449.878 34.475 449.283 34.8367 448.699 35.07C448.139 35.3033 447.638 35.4433 447.194 35.49C446.751 35.5367 446.424 35.56 446.214 35.56ZM453.54 35V33.145C454.216 33.145 454.695 33.005 454.975 32.725C455.255 32.4217 455.43 32.0017 455.5 31.465C455.57 30.9283 455.605 30.3217 455.605 29.645V23.065C455.605 22.645 455.616 22.2017 455.64 21.735C455.663 21.2683 455.698 20.79 455.745 20.3C455.348 20.3233 454.916 20.3467 454.45 20.37C453.983 20.3933 453.598 20.4167 453.295 20.44V18.165C454.345 18.165 455.208 18.1183 455.885 18.025C456.561 17.9083 457.086 17.7683 457.46 17.605C457.833 17.4417 458.101 17.29 458.265 17.15H459.735C459.781 17.3833 459.805 17.675 459.805 18.025C459.828 18.3517 459.851 18.655 459.875 18.935C460.645 18.3283 461.485 17.85 462.395 17.5C463.305 17.1267 464.191 16.94 465.055 16.94C466.151 16.94 467.061 17.1383 467.785 17.535C468.531 17.9317 469.115 18.5033 469.535 19.25C470.351 18.5733 471.273 18.025 472.3 17.605C473.326 17.1617 474.318 16.94 475.275 16.94C477.211 16.94 478.658 17.5117 479.615 18.655C480.595 19.775 481.073 21.6883 481.05 24.395V29.995C481.05 30.3683 481.038 30.8233 481.015 31.36C480.991 31.8733 480.956 32.375 480.91 32.865C481.283 32.8183 481.68 32.795 482.1 32.795C482.52 32.7717 482.87 32.76 483.15 32.76V35H474.855V33.145C475.461 33.145 475.893 33.005 476.15 32.725C476.406 32.4217 476.558 32.0017 476.605 31.465C476.675 30.9283 476.71 30.3217 476.71 29.645V24.43C476.71 22.75 476.441 21.5483 475.905 20.825C475.368 20.1017 474.61 19.74 473.63 19.74C472.976 19.7167 472.346 19.845 471.74 20.125C471.156 20.3817 470.643 20.6967 470.2 21.07C470.316 21.5133 470.398 21.9917 470.445 22.505C470.491 23.0183 470.515 23.5667 470.515 24.15C470.515 25.13 470.515 26.11 470.515 27.09C470.515 28.0467 470.503 29.015 470.48 29.995C470.48 30.3683 470.468 30.8233 470.445 31.36C470.445 31.8733 470.41 32.375 470.34 32.865C470.713 32.8183 471.11 32.795 471.53 32.795C471.95 32.7717 472.311 32.76 472.615 32.76V35H464.215V33.145C464.845 33.145 465.288 33.005 465.545 32.725C465.825 32.4217 466 32.0017 466.07 31.465C466.14 30.9283 466.175 30.3217 466.175 29.645V24.36C466.175 22.68 465.918 21.49 465.405 20.79C464.915 20.0667 464.18 19.6933 463.2 19.67C462.57 19.67 461.963 19.81 461.38 20.09C460.82 20.37 460.33 20.7083 459.91 21.105C459.91 21.4083 459.91 21.7117 459.91 22.015C459.91 22.295 459.91 22.5867 459.91 22.89V29.995C459.91 30.3683 459.898 30.8233 459.875 31.36C459.875 31.8733 459.84 32.375 459.77 32.865C460.143 32.8183 460.516 32.795 460.89 32.795C461.286 32.7717 461.625 32.76 461.905 32.76V35H453.54ZM494.039 35.56C492.383 35.56 490.878 35.1983 489.524 34.475C488.171 33.7283 487.098 32.69 486.304 31.36C485.534 30.0067 485.149 28.4317 485.149 26.635C485.149 24.745 485.546 23.065 486.339 21.595C487.133 20.125 488.194 18.9817 489.524 18.165C490.878 17.3483 492.359 16.94 493.969 16.94C495.626 16.94 497.119 17.3133 498.449 18.06C499.779 18.8067 500.829 19.845 501.599 21.175C502.393 22.505 502.789 24.08 502.789 25.9C502.789 27.8133 502.404 29.505 501.634 30.975C500.888 32.4217 499.849 33.5533 498.519 34.37C497.213 35.1633 495.719 35.56 494.039 35.56ZM494.214 33.425C495.264 33.425 496.069 33.0983 496.629 32.445C497.189 31.7917 497.574 30.9633 497.784 29.96C498.018 28.9333 498.134 27.8833 498.134 26.81C498.134 25.9 498.053 24.9783 497.889 24.045C497.749 23.1117 497.516 22.2717 497.189 21.525C496.863 20.755 496.431 20.1483 495.894 19.705C495.358 19.2383 494.704 19.005 493.934 19.005C492.908 19.0283 492.091 19.3667 491.484 20.02C490.878 20.6733 490.434 21.5017 490.154 22.505C489.898 23.5083 489.769 24.57 489.769 25.69C489.769 26.95 489.921 28.1867 490.224 29.4C490.528 30.59 491.006 31.57 491.659 32.34C492.313 33.0867 493.164 33.4483 494.214 33.425ZM513.229 35.56C512.155 35.56 511.152 35.42 510.219 35.14C509.285 34.86 508.539 34.5217 507.979 34.125L508.084 35.245H505.809L505.634 29.225H507.524C507.594 30.0183 507.874 30.7417 508.364 31.395C508.854 32.025 509.484 32.5267 510.254 32.9C511.047 33.25 511.922 33.425 512.879 33.425C513.345 33.425 513.789 33.355 514.209 33.215C514.652 33.075 515.014 32.8533 515.294 32.55C515.597 32.2233 515.749 31.815 515.749 31.325C515.749 30.8117 515.574 30.3917 515.224 30.065C514.897 29.7383 514.43 29.435 513.824 29.155C513.217 28.875 512.505 28.5833 511.689 28.28C510.965 28 510.242 27.7083 509.519 27.405C508.795 27.1017 508.13 26.74 507.524 26.32C506.917 25.8767 506.427 25.34 506.054 24.71C505.68 24.08 505.494 23.31 505.494 22.4C505.494 21.77 505.61 21.14 505.844 20.51C506.077 19.88 506.45 19.2967 506.964 18.76C507.477 18.2 508.13 17.7567 508.924 17.43C509.74 17.1033 510.732 16.94 511.899 16.94C512.529 16.94 513.24 17.045 514.034 17.255C514.827 17.4417 515.527 17.7683 516.134 18.235L516.099 17.115H518.374V23.275H516.484C516.367 22.4583 516.11 21.735 515.714 21.105C515.317 20.4517 514.792 19.9383 514.139 19.565C513.485 19.1917 512.704 19.005 511.794 19.005C511.047 19.005 510.417 19.1917 509.904 19.565C509.39 19.915 509.134 20.44 509.134 21.14C509.134 21.7233 509.332 22.2017 509.729 22.575C510.125 22.9483 510.662 23.2633 511.339 23.52C512.015 23.7767 512.75 24.0567 513.544 24.36C514.64 24.7333 515.632 25.1767 516.519 25.69C517.429 26.2033 518.152 26.8217 518.689 27.545C519.225 28.2683 519.494 29.1667 519.494 30.24C519.494 31.4533 519.19 32.4567 518.584 33.25C517.977 34.02 517.195 34.6033 516.239 35C515.282 35.3733 514.279 35.56 513.229 35.56Z" fill="black"/>
<line x1="421.838" y1="32" y2="32" stroke="black" stroke-width="2"/>
<path d="M1149.68 18.1304L516.679 18.1304" stroke="url(#paint0_linear_11_76)" stroke-width="2"/>
<defs>
<linearGradient id="paint0_linear_11_76" x1="484.966" y1="20.1889" x2="1176.09" y2="17.0725" gradientUnits="userSpaceOnUse">
<stop/>
<stop offset="1" stop-color="white" stop-opacity="0"/>
</linearGradient>
</defs>
</svg>
