<svg width="204" height="237" viewBox="0 0 204 237" fill="none" xmlns="http://www.w3.org/2000/svg">
<path d="M29.4999 31.8276L26.7142 215.806L197.621 206.755L73.2508 6.15625L29.4999 31.8276Z" fill="black"/>
<path d="M14.7523 76.0942L147.808 33.4731L203.193 171.045L40.9701 218.932L14.7523 76.0942Z" fill="#FCC75F"/>
<path d="M91.7966 103.595L83.2922 103.956L84.8653 92.8118L85.4749 88.5019L88.9553 88.2732L89.2371 89.7937L91.7966 103.595Z" fill="#F6F4E7"/>
<path d="M89.237 89.7937L84.8652 92.8118L85.4748 88.5019L88.9552 88.2732L89.237 89.7937Z" fill="black"/>
<path d="M79.2022 80.557L53.5874 33.1439L80.6245 26.2324L93.2418 70.9927L79.2022 80.557Z" fill="#FD612E"/>
<path d="M87.4641 88.7094C91.3672 88.7094 94.5314 85.5317 94.5314 81.6119C94.5314 77.6921 91.3672 74.5144 87.4641 74.5144C83.5609 74.5144 80.3967 77.6921 80.3967 81.6119C80.3967 85.5317 83.5609 88.7094 87.4641 88.7094Z" fill="#F6F4E7"/>
<path d="M99.1408 80.3726C99.1399 81.6852 98.3625 82.8717 97.1626 83.3919C95.9627 83.9122 94.5697 83.6667 93.6178 82.7673C92.666 81.8678 92.3372 80.4864 92.7813 79.252C90.7518 79.6036 88.6791 78.9376 87.2297 77.4682C86.389 79.1175 84.8318 80.2799 83.0169 80.6129C83.1695 81.0086 83.2473 81.4294 83.2463 81.8537C83.2497 83.4949 82.1031 84.9122 80.5028 85.2449C78.9024 85.5776 77.2898 84.734 76.6441 83.2263C75.9984 81.7186 76.4977 79.9627 77.8388 79.0249C75.4664 76.7651 75.3674 73.0017 77.6176 70.6192C79.8679 68.2366 83.6153 68.1372 85.9877 70.397C87.0126 68.1534 89.2446 66.7145 91.7026 66.7129C94.1605 66.7112 96.3945 68.1471 97.4224 70.3893C98.4503 72.6316 98.0841 75.2696 96.4846 77.144C98.0256 77.4426 99.1394 78.7965 99.1408 80.3726Z" fill="black"/>
<path d="M67.3165 58.6038L87.5878 50.9995" stroke="black" stroke-width="1.36" stroke-miterlimit="10"/>
<path d="M70.2194 63.9989L89.2272 56.7583" stroke="black" stroke-width="1.36" stroke-miterlimit="10"/>
<path d="M175.11 113.778L109.464 123.696V206.919L58.6672 201.16L55.0623 206.919V101.436H77.4293L77.6751 96.9933L83.5741 97.9807L83.892 101.436H90.2121L89.8008 99.1326L96.683 96.4997L97.7415 101.436H99.1868L174.517 94.0312L175.11 113.778Z" fill="#8964FE"/>
<path d="M120.557 175.589C119.841 182.069 115.756 186.932 111.434 186.45C107.111 185.968 104.188 180.323 104.904 173.843C105.608 167.473 109.567 162.666 113.808 162.962L121.918 113.828L123.468 114.085L115.347 163.311C118.927 164.664 121.198 169.791 120.557 175.589Z" fill="black"/>
<path d="M136.337 137.64L116.182 147.349L124.703 140.766L116.182 144.551L124.816 137.421L116.019 141.26L123.872 135.076L115.787 138.408L124.246 132.443L120.607 129.247L129.19 131.044L132.354 129.57L136.337 137.64Z" fill="#F6F4E7"/>
<path d="M124.27 124.957L169.35 95.8442C174.065 92.7996 180.339 94.164 183.365 98.8917C186.39 103.619 185.021 109.92 180.306 112.965L135.226 142.077L124.27 124.957Z" fill="#8964FE"/>
<path d="M73.6086 202.983L64.6364 193.973C54.8844 184.179 49.4059 170.896 49.4059 157.046C49.4059 143.196 54.8844 129.913 64.6364 120.12L147.148 202.983C137.396 212.777 124.17 218.279 110.378 218.279C96.587 218.279 83.3605 212.777 73.6086 202.983Z" fill="#FD612E"/>
<path d="M74.1782 207.013L89.6484 210.647L73.5146 200.592L84.7309 200.947L66.0999 195.507L62.4737 190.019C61.9657 190.713 61.455 191.407 60.9416 192.099C58.8114 194.959 56.65 197.79 54.4871 200.623L61.4331 207.673L79.8855 228.508L71.6925 213.148L86.3761 223.923L73.8112 209.827L89.6189 218.768L74.1782 207.013Z" fill="#F6F4E7"/>
<path d="M76.5723 102.838C74.0177 99.1934 68.0072 96.3482 65.1331 95.5122C61.6609 94.4919 58.015 94.1825 54.7935 95.9746C51.6883 97.7041 48.9748 100.059 46.4579 102.557C40.939 108.019 35.7266 113.731 30.1553 119.143C26.3865 122.801 22.598 126.423 18.821 130.066C17.7707 131.08 0.783214 147.22 0.897917 147.345L54.5018 208.706L65.0495 192.53L41.0062 146.124C40.1115 144.4 53.1663 134.338 54.5936 133.01C60.5734 127.445 66.3446 121.665 71.9071 115.671C74.8681 112.49 79.7938 107.43 76.5723 102.838Z" fill="#8964FE"/>
<path d="M64.5777 193.295L57.1285 204.117L66.0786 195.55L64.5777 193.295Z" fill="black"/>
<path d="M131.421 120.361L170.198 95.1619L122.737 121.677L131.421 120.361Z" fill="black"/>
<path d="M66.5325 122.171L109.69 165.49L109.464 137.1C109.464 137.1 82.386 135.624 66.5325 122.171Z" fill="black"/>
<path d="M106.187 70.4992L127.98 59.4736L139.123 79.55L111.758 93.0439L106.187 70.4992Z" stroke="white" stroke-width="1.36" stroke-miterlimit="10"/>
<path d="M32.2855 54.7015L49.4909 49.4355L59.9781 78.2335L37.8568 84.3223L34.6959 69.4707L47.033 63.9168L39.3316 57.8281L32.2855 54.7015Z" stroke="white" stroke-width="1.36" stroke-miterlimit="10"/>
<path d="M151.003 174.419L153.789 201.407L180.826 200.748L174.599 189.558L159.032 194.824L161.49 173.267L151.003 174.419Z" stroke="white" stroke-width="1.36" stroke-miterlimit="10"/>
<path d="M138.304 39.5618C139.842 39.5618 141.089 38.3093 141.089 36.7643C141.089 35.2193 139.842 33.9668 138.304 33.9668C136.765 33.9668 135.518 35.2193 135.518 36.7643C135.518 38.3093 136.765 39.5618 138.304 39.5618Z" fill="black"/>
<path d="M32.6132 97.6516C33.7897 97.6516 34.7434 96.6938 34.7434 95.5123C34.7434 94.3308 33.7897 93.373 32.6132 93.373C31.4368 93.373 30.483 94.3308 30.483 95.5123C30.483 96.6938 31.4368 97.6516 32.6132 97.6516Z" fill="black"/>
<path d="M60.6335 90.9046C62.172 90.9046 63.4192 89.6521 63.4192 88.1071C63.4192 86.5621 62.172 85.3096 60.6335 85.3096C59.0951 85.3096 57.8479 86.5621 57.8479 88.1071C57.8479 89.6521 59.0951 90.9046 60.6335 90.9046Z" fill="black"/>
<path d="M17.2103 189.476C18.0248 189.476 18.6851 188.813 18.6851 187.995C18.6851 187.177 18.0248 186.514 17.2103 186.514C16.3959 186.514 15.7356 187.177 15.7356 187.995C15.7356 188.813 16.3959 189.476 17.2103 189.476Z" fill="black"/>
<path d="M8.68947 123.323C11.0424 123.323 12.9499 121.407 12.9499 119.044C12.9499 116.681 11.0424 114.766 8.68947 114.766C6.33652 114.766 4.42908 116.681 4.42908 119.044C4.42908 121.407 6.33652 123.323 8.68947 123.323Z" fill="black"/>
<path d="M184.021 147.184C186.736 147.184 188.937 144.974 188.937 142.247C188.937 139.521 186.736 137.311 184.021 137.311C181.306 137.311 179.105 139.521 179.105 142.247C179.105 144.974 181.306 147.184 184.021 147.184Z" fill="black"/>
<path d="M162.555 161.172C164.818 161.172 166.652 159.33 166.652 157.058C166.652 154.786 164.818 152.944 162.555 152.944C160.293 152.944 158.459 154.786 158.459 157.058C158.459 159.33 160.293 161.172 162.555 161.172Z" fill="black"/>
<path d="M136.337 92.0566C137.333 92.0566 138.14 91.2462 138.14 90.2464C138.14 89.2467 137.333 88.4363 136.337 88.4363C135.342 88.4363 134.535 89.2467 134.535 90.2464C134.535 91.2462 135.342 92.0566 136.337 92.0566Z" fill="black"/>
<path d="M136.01 151.298C137.186 151.298 138.14 150.34 138.14 149.159C138.14 147.977 137.186 147.02 136.01 147.02C134.833 147.02 133.879 147.977 133.879 149.159C133.879 150.34 134.833 151.298 136.01 151.298Z" fill="black"/>
<path d="M140.57 13.4759L167.309 41.9925L153.893 6.82104L140.57 13.4759Z" fill="#8964FE"/>
<path d="M4.79614 81.7533L19.6895 108.98L27.8842 97.5083L11.5112 72.5215L4.79614 81.7533Z" fill="#8964FE"/>
<path d="M200.899 56.8218H141.581V80.8294H200.899V56.8218Z" fill="black"/>
<path d="M202.373 55.1812H143.056V79.1888H202.373V55.1812Z" fill="#FD612E"/>
<path d="M28.6805 20.4729C28.6805 20.4729 -9.66295 47.4607 9.18107 46.3088C28.0251 45.1569 32.1216 33.9668 23.437 34.2959C14.7523 34.6251 -3.60009 67.8662 10.492 66.7143" stroke="#FD612E" stroke-width="1.36" stroke-miterlimit="10" stroke-linecap="round"/>
<path d="M127.007 93.0176L123.869 89.8547C129.139 84.5888 131.161 77.3482 129.277 70.4992C126.642 60.9267 116.949 53.3849 102.682 49.8173C95.5998 48.0449 91.3985 44.5925 90.1941 39.5569C88.6603 33.1391 92.2735 24.582 100.932 14.1127C104.934 9.31332 109.278 4.81279 113.931 0.646729L116.849 4.01692C112.369 8.04219 108.181 12.3839 104.317 17.0089C100.857 21.1986 98.2446 25.0724 96.5519 28.5281C94.5855 32.5549 93.8941 35.9169 94.5184 38.5202C95.3164 41.8542 98.338 44.1334 103.758 45.491C112.053 47.5677 118.894 50.8293 124.092 55.1885C128.844 59.1676 132.121 64.0533 133.562 69.3143C135.879 77.7283 133.429 86.5898 127.007 93.0176ZM116.849 4.01692L115.389 2.33182L116.849 4.01692Z" fill="#FD612E"/>
</svg>
